PathFileType	4	(X/Y/Z)	/Users/itak/Documents/Research/Walk-IL/dataset/trc/00432_00167.trc
DataRate	CameraRate	NumFrames	NumMarkers	Units	OrigDataRate	OrigDataStartFrame	OrigNumFrames
100.000000	100.000000	4	53	mm	100.000000	433	693
Frame#	Time	RPSI			LPSI			L3			STRN			T10			C7			CLAV			RBAK			LBAK			LSHO			LUPA			LAEL			LAOL			LWTS			LWPS			LFRA			LIFD			LHPS			LHTS			RSHO			RUPA			RAEL			RAOL			RWTS			RWPS			RFRA			RIFD			RHTS			RHPS			RBHD			LFHD			RFHD			LBHD			LHIP			RHIP			RASI			LASI			LKNE			LTHI			LANK			LTIP			LTOE			LMT1			LMT5			LHEE			RKNE			RTHI			RANK			RTIP			RTOE			RMT1			RMT5			RHEE			
		X1	Y1	Z1	X2	Y2	Z2	X3	Y3	Z3	X4	Y4	Z4	X5	Y5	Z5	X6	Y6	Z6	X7	Y7	Z7	X8	Y8	Z8	X9	Y9	Z9	X10	Y10	Z10	X11	Y11	Z11	X12	Y12	Z12	X13	Y13	Z13	X14	Y14	Z14	X15	Y15	Z15	X16	Y16	Z16	X17	Y17	Z17	X18	Y18	Z18	X19	Y19	Z19	X20	Y20	Z20	X21	Y21	Z21	X22	Y22	Z22	X23	Y23	Z23	X24	Y24	Z24	X25	Y25	Z25	X26	Y26	Z26	X27	Y27	Z27	X28	Y28	Z28	X29	Y29	Z29	X30	Y30	Z30	X31	Y31	Z31	X32	Y32	Z32	X33	Y33	Z33	X34	Y34	Z34	X35	Y35	Z35	X36	Y36	Z36	X37	Y37	Z37	X38	Y38	Z38	X39	Y39	Z39	X40	Y40	Z40	X41	Y41	Z41	X42	Y42	Z42	X43	Y43	Z43	X44	Y44	Z44	X45	Y45	Z45	X46	Y46	Z46	X47	Y47	Z47	X48	Y48	Z48	X49	Y49	Z49	X50	Y50	Z50	X51	Y51	Z51	X52	Y52	Z52	X53	Y53	Z53	

434	4.33	445.1553039550781	957.7471313476562	644.9261474609375	515.032470703125	955.5891723632812	520.9022827148438	483.3185424804688	1057.160278320312	611.5241088867188	728.3607177734375	1238.503295898438	735.6041870117188	468.6169738769531	1181.886840820312	607.1121215820312	528.68115234375	1445.82373046875	656.995361328125	699.439208984375	1353.6640625	720.6788940429688	427.8818359375	1327.077880859375	711.1090087890625	542.8972778320312	1404.041625976562	551.4678955078125	670.5565185546875	1420.316040039062	527.2228393554688	701.2167358398438	1308.12109375	426.9654846191406	742.8457641601562	1103.170654296875	385.6733703613281	648.8487548828125	1071.464965820312	416.6588134765625	850.51171875	931.5618896484375	467.9447937011719	832.9933471679688	904.1320190429688	401.4320373535156	785.264892578125	1023.875549316406	389.1177673339844	908.7591552734375	773.720703125	477.5192565917969	864.2244262695312	830.4749755859375	410.7716979980469	895.4705200195312	852.784423828125	469.7590026855469	523.5633544921875	1409.671020507812	829.896240234375	474.5292663574219	1351.5390625	892.2574462890625	446.318115234375	1072.298461914062	961.457763671875	416.2857055664062	1043.807006835938	906.365478515625	594.269287109375	902.2060546875	987.652587890625	516.18701171875	872.0158081054688	1013.175720214844	456.7379150390625	1016.571899414062	978.2467041015625	628.7720947265625	750.7421264648438	1022.80224609375	624.2064819335938	811.6383666992188	1022.78515625	552.0661010742188	794.2218017578125	1034.511840820312	568.4698486328125	1633.800537109375	776.9476928710938	763.8447265625	1648.104858398438	711.4647216796875	698.8388061523438	1643.857788085938	825.1224365234375	644.3973999023438	1646.071411132812	616.1723022460938	694.7914428710938	850.3841552734375	483.417236328125	484.6048583984375	845.3119506835938	822.2610473632812	602.0020141601562	890.0331420898438	817.2530517578125	735.7933959960938	890.4100341796875	600.1626586914062	757.5320434570312	432.0248413085938	512.06591796875	778.2874755859375	589.8870239257812	515.2088012695312	462.8208312988281	161.4097442626953	353.1923217773438	663.2573852539062	314.1625671386719	449.0582275390625	584.8726196289062	54.46293258666992	503.5148620605469	521.6019287109375	84.7486572265625	499.9445190429688	570.2813110351562	78.17037200927734	400.9422302246094	407.5773315429688	200.5177307128906	377.4942321777344	571.7686157226562	452.6431579589844	789.6556396484375	533.8516235351562	710.3460693359375	845.240234375	543.3907470703125	40.14846801757812	724.5159301757812	571.4315185546875	303.7104187011719	782.6295776367188	757.7258911132812	39.48880004882812	783.8685913085938	714.2709350585938	44.26599884033203	722.2159423828125	649.1419067382812	45.66688919067383	807.06884765625	504.205322265625	32.05435943603516	653.6661987304688	
435	4.34	449.8388977050781	957.5712890625	647.7842407226562	520.3466796875	955.2064819335938	523.93896484375	487.6493835449219	1056.91650390625	614.7559814453125	732.0772094726562	1239.089965820312	738.8285522460938	472.5959777832031	1181.596435546875	610.224853515625	532.0875854492188	1445.818237304688	659.6898803710938	702.9453125	1354.127685546875	723.5309448242188	431.5133972167969	1326.959106445312	714.0912475585938	546.3173217773438	1403.832275390625	554.2098999023438	673.83056640625	1420.414794921875	529.9591064453125	704.911376953125	1308.291381835938	429.77734375	748.6034545898438	1104.189697265625	389.0338439941406	655.185791015625	1070.571044921875	420.2333374023438	861.478759765625	938.3517456054688	475.2971801757812	844.8749389648438	908.3789672851562	409.5331420898438	793.4176025390625	1026.355224609375	394.2267456054688	925.2694702148438	783.0880737304688	489.8560485839844	878.8919677734375	836.0939331054688	421.1632385253906	909.1319580078125	861.4111938476562	479.4188537597656	527.00146484375	1410.197021484375	832.5941772460938	478.2548522949219	1352.144775390625	895.2525024414062	452.5511779785156	1073.235473632812	966.38427734375	422.4879150390625	1043.74365234375	911.6901245117188	603.2857055664062	905.9480590820312	993.2064819335938	526.0055541992188	874.6036987304688	1019.459411621094	463.8796691894531	1017.841064453125	983.584716796875	640.8304443359375	755.5122680664062	1029.524536132812	635.1595458984375	816.3762817382812	1028.961181640625	563.4639282226562	797.667724609375	1041.361938476562	572.572998046875	1634.1376953125	779.7525024414062	767.9099731445312	1647.892456054688	714.0607299804688	702.9920043945312	1643.780883789062	827.7525024414062	648.3382568359375	1646.243041992188	618.925048828125	701.1106567382812	850.973876953125	487.9071044921875	488.3604125976562	845.006591796875	825.0504150390625	605.7591552734375	889.8388671875	821.0346069335938	740.4985961914062	891.207763671875	604.7618408203125	768.5325317382812	433.3260498046875	520.623291015625	787.6478271484375	591.5155639648438	522.515625	479.7734375	155.7342681884766	363.6919860839844	676.4530029296875	313.2823181152344	458.3833923339844	606.8378295898438	53.38925552368164	514.2819213867188	542.0413818359375	82.01596832275391	510.7528381347656	590.4502563476562	76.96145629882812	411.5427551269531	422.8794860839844	192.7345123291016	387.9477844238281	573.9193725585938	452.205078125	791.2762451171875	537.1557006835938	709.8743896484375	847.83349609375	543.4315185546875	40.22328567504883	724.45458984375	572.8367309570312	303.2871398925781	783.5491333007812	757.7108154296875	39.459228515625	783.8971557617188	714.27783203125	44.22993087768555	722.1992797851562	649.1489868164062	45.68992233276367	807.0320434570312	504.1418151855469	32.15235900878906	653.6200561523438	
436	4.350000000000001	454.5048828125	957.348876953125	650.6412353515625	525.5799560546875	954.781494140625	526.9525146484375	491.9580383300781	1056.61572265625	617.9647827148438	735.7777709960938	1239.590454101562	742.04541015625	476.5657043457031	1181.233032226562	613.2792358398438	535.48486328125	1445.742553710938	662.3222045898438	706.4310302734375	1354.512329101562	726.3912353515625	435.087158203125	1326.76708984375	716.996826171875	549.7575073242188	1403.549194335938	556.8973999023438	677.1561889648438	1420.425048828125	532.69287109375	708.695556640625	1308.36572265625	432.6127319335938	754.3851928710938	1105.152587890625	392.4272766113281	661.5448608398438	1069.661865234375	423.7000427246094	871.904296875	944.9976806640625	482.5896606445312	856.420654296875	912.7191162109375	417.5315551757812	801.4518432617188	1028.829345703125	399.3329162597656	940.6312866210938	792.4126586914062	501.9339599609375	892.9472045898438	841.836669921875	431.3800048828125	921.9660034179688	869.8899536132812	488.9755249023438	530.3603515625	1410.640625	835.2396850585938	481.8497314453125	1352.650268554688	898.1597900390625	458.6716918945312	1074.049560546875	971.0845336914062	428.5921325683594	1043.635009765625	916.7422485351562	612.004638671875	909.5233154296875	998.4403076171875	535.5288696289062	877.0822143554688	1025.393432617188	470.8310852050781	1018.995910644531	988.650146484375	652.4951171875	760.1319580078125	1035.795776367188	645.7439575195312	820.9305419921875	1034.76513671875	574.5147094726562	800.990234375	1047.778686523438	576.659423828125	1634.418823242188	782.4759521484375	771.9588623046875	1647.614990234375	716.5802001953125	707.1034545898438	1643.646118164062	830.28369140625	652.2728881835938	1646.330078125	621.5919189453125	707.3140258789062	851.494140625	492.2873840332031	492.186279296875	844.695556640625	827.8456420898438	609.5913696289062	889.6157836914062	824.7197265625	745.1552734375	891.9053344726562	609.2302856445312	779.4342041015625	434.6837463378906	529.1861572265625	796.8427124023438	593.13232421875	529.7738037109375	497.1458740234375	149.9376373291016	374.3992919921875	689.7420654296875	312.3825988769531	467.7794494628906	628.9735717773438	52.43535614013672	525.2495727539062	562.69482421875	79.28155517578125	521.7306518554688	610.8008422851562	75.75197601318359	422.3280944824219	438.66455078125	184.7162628173828	398.5613403320312	576.10888671875	451.7479858398438	792.87158203125	540.5360107421875	709.386474609375	850.399169921875	543.445556640625	40.29537582397461	724.3805541992188	574.2798461914062	302.8507690429688	784.441650390625	757.6818237304688	39.43956756591797	783.9169921875	714.2841186523438	44.18243789672852	722.169677734375	649.162841796875	45.72333526611328	806.97314453125	504.1139221191406	32.21813583374023	653.5642700195312	
437	4.36	459.1444702148438	957.0675659179688	653.4949340820312	530.7235107421875	954.3202514648438	529.9597778320312	496.2381591796875	1056.269409179688	621.14990234375	739.4677124023438	1240.008056640625	745.2515258789062	480.5278015136719	1180.803466796875	616.27392578125	538.8851318359375	1445.599365234375	664.9020385742188	709.9073486328125	1354.8232421875	729.2609252929688	438.618408203125	1326.508056640625	719.83203125	553.2227783203125	1403.200927734375	559.5409545898438	680.5396118164062	1420.349975585938	535.4290771484375	712.5814819335938	1308.350708007812	435.4794921875	760.2098388671875	1106.05615234375	395.8688659667969	667.9454345703125	1068.753295898438	427.051025390625	881.7673950195312	951.4197387695312	489.8238830566406	867.615234375	917.1058959960938	425.4101257324219	809.3665771484375	1031.2705078125	404.4409484863281	954.8807373046875	801.557373046875	513.6845703125	906.3684692382812	847.6338500976562	441.3653259277344	933.9951171875	878.1275024414062	498.4047546386719	533.65869140625	1411.002807617188	837.843017578125	485.3400268554688	1353.053466796875	900.9893188476562	464.6656188964844	1074.73583984375	975.552978515625	434.5850524902344	1043.4892578125	921.5158081054688	620.4246826171875	912.9052124023438	1003.361633300781	544.7373657226562	879.4321899414062	1030.977905273438	477.5936889648438	1020.027770996094	993.441162109375	663.7374267578125	764.5565185546875	1041.63916015625	655.9351806640625	825.253662109375	1040.209716796875	585.180908203125	804.1655883789062	1053.765014648438	580.7376708984375	1634.647094726562	785.126220703125	776.001708984375	1647.26904296875	719.0357666015625	711.1778564453125	1643.448120117188	832.7238159179688	656.2161865234375	1646.336547851562	624.1800537109375	713.4059448242188	851.9420776367188	496.5496215820312	496.0693054199219	844.3655395507812	830.6388549804688	613.480712890625	889.3641967773438	828.3179931640625	749.7732543945312	892.5099487304688	613.5834350585938	790.2283935546875	436.1022338867188	537.75	805.8622436523438	594.7455444335938	536.9744262695312	514.9237670898438	144.0386810302734	385.3214111328125	703.1361083984375	311.4725036621094	477.2591552734375	651.2205810546875	51.64035797119141	536.457275390625	583.5386962890625	76.5841064453125	532.9010009765625	631.333251953125	74.56048583984375	433.3315124511719	454.9600830078125	176.5177459716797	409.3317565917969	578.3441162109375	451.2697143554688	794.4454956054688	543.9848022460938	708.8771362304688	852.935791015625	543.4375610351562	40.36904907226562	724.2948608398438	575.7645874023438	302.3998413085938	785.3081665039062	757.6426391601562	39.42974472045898	783.9302368164062	714.2990112304688	44.12617111206055	722.1275024414062	649.1854248046875	45.76750564575195	806.8916625976562	504.1513366699219	32.24153137207031	653.4859619140625	
